<svg width="110" height="151" viewBox="0 0 110 151" fill="none" xmlns="http://www.w3.org/2000/svg">
<path d="M84.7603 43.98C67.4403 44.26 40.5602 28.83 30.4102 45.84C24.5602 22.72 39.73 9.71001 69.77 16.13C88.83 20.2 97.9499 19.55 109.19 6.89443e-06C109.19 -0.0199931 114.4 43.48 84.7603 43.98ZM36.5103 123.59C37.6103 123.59 42.1299 120.69 42.1299 118.06V95.3C42.1299 85.3 60.6301 87.87 67.0601 89.25C67.2356 89.2887 67.3927 89.3861 67.5054 89.5261C67.6181 89.6661 67.6798 89.8403 67.6802 90.02V92.02C67.6815 92.101 67.6668 92.1814 67.6367 92.2565C67.6067 92.3317 67.5617 92.4001 67.5049 92.4578C67.4481 92.5155 67.3803 92.5614 67.3057 92.5927C67.231 92.6239 67.1508 92.64 67.0698 92.64H64.3599C64.0799 105.98 53.36 106.75 47.75 106.75V149.98C53.36 149.98 73.0298 128.57 73.0298 108.61V87.98C73.0298 65.82 48.3903 50.59 36.5103 50.59C24.6303 50.59 0 65.82 0 87.98V108.66C0 128.66 19.6598 150.03 25.2798 150.03V106.83C19.6598 106.83 9.20994 106.06 8.93994 92.72H6.27002C6.18906 92.72 6.10885 92.7039 6.03418 92.6726C5.95951 92.6414 5.89174 92.5955 5.83496 92.5378C5.77818 92.4801 5.73367 92.4117 5.70361 92.3365C5.67355 92.2614 5.65883 92.181 5.66016 92.1V90.1C5.6605 89.9203 5.72175 89.746 5.83447 89.6061C5.94719 89.4661 6.10427 89.3687 6.27979 89.33C12.7098 87.95 30.9302 85.33 30.9302 95.38V118.13C30.8902 120.68 35.4103 123.58 36.5103 123.58V123.59Z" fill="#656775"/>
</svg>
